<svg width="41" height="46" viewBox="0 0 41 46" fill="none" xmlns="http://www.w3.org/2000/svg">
<path id="Vector" d="M34.5938 37.3708C34.9408 37.3708 35.241 37.5131 35.4946 37.7978C35.7482 38.0824 35.875 38.4195 35.875 38.809C35.875 39.1985 35.7482 39.5356 35.4946 39.8202C35.241 40.1049 34.9408 40.2472 34.5938 40.2472H19.2188C18.8717 40.2472 18.5715 40.1049 18.3179 39.8202C18.0643 39.5356 17.9375 39.1985 17.9375 38.809C17.9375 38.4195 18.0643 38.0824 18.3179 37.7978C18.5715 37.5131 18.8717 37.3708 19.2188 37.3708H34.5938ZM32.0312 43.1236C32.3783 43.1236 32.6785 43.2659 32.9321 43.5506C33.1857 43.8352 33.3125 44.1723 33.3125 44.5618C33.3125 44.9513 33.1857 45.2884 32.9321 45.573C32.6785 45.8577 32.3783 46 32.0312 46H21.7812C21.4342 46 21.134 45.8577 20.8804 45.573C20.6268 45.2884 20.5 44.9513 20.5 44.5618C20.5 44.1723 20.6268 43.8352 20.8804 43.5506C21.134 43.2659 21.4342 43.1236 21.7812 43.1236H32.0312ZM36.7959 31.618H41V34.4944H10.7505C10.617 35.4532 10.5236 36.412 10.4702 37.3708C10.4168 38.3296 10.3701 39.2809 10.3301 40.2247C10.29 41.1685 10.27 42.1273 10.27 43.1011C10.27 44.0749 10.2633 45.0412 10.25 46H2.5625V41.6629C2.5625 40.4494 2.60254 39.2509 2.68262 38.0674C2.7627 36.8839 2.87614 35.6929 3.02295 34.4944H0V31.618H3.44336C4.11068 27.9476 5.11833 24.4195 6.46631 21.0337C7.81429 17.6479 9.48258 14.4494 11.4712 11.4382C9.52262 11.3633 7.73421 10.9064 6.10596 10.0674C4.4777 9.22846 2.98958 8.02996 1.6416 6.47191L0.740723 5.4382L1.68164 4.44944C3.06966 2.99625 4.59115 1.89513 6.24609 1.14607C7.90104 0.397004 9.68278 0.0149813 11.5913 0C13.6733 0 15.5819 0.434457 17.3169 1.30337C19.0519 2.17228 20.6468 3.43071 22.1016 5.07865C23.1292 5.10861 24.1235 5.28839 25.0845 5.61798C26.0454 5.94757 26.9396 6.397 27.7671 6.96629C28.5946 7.53558 29.3486 8.20974 30.0293 8.98876C30.71 9.76779 31.2905 10.6292 31.771 11.573C32.2515 12.5169 32.6318 13.5281 32.9121 14.6067C33.1924 15.6854 33.3258 16.809 33.3125 17.9775V19.4157H32.0312C30.2695 19.4157 28.6213 18.9963 27.0864 18.1573C25.5516 17.3184 24.2236 16.1273 23.1025 14.5843C22.0882 16.6517 20.8136 18.3521 19.2788 19.6854C17.744 21.0187 15.9489 21.9551 13.8936 22.4944C13.3197 23.9775 12.8125 25.4757 12.3721 26.9888C11.9316 28.5019 11.5513 30.0449 11.231 31.618H17.0166C17.3102 30.3596 17.7707 29.206 18.3979 28.1573C19.0252 27.1086 19.7726 26.1948 20.6401 25.4157C21.5077 24.6367 22.4819 24.0449 23.563 23.6404C24.644 23.236 25.7585 23.0187 26.9062 22.9888C28.0674 22.9888 29.1818 23.1985 30.2495 23.618C31.3172 24.0375 32.2848 24.6367 33.1523 25.4157C34.0199 26.1948 34.7739 27.1011 35.4146 28.1348C36.0552 29.1685 36.5156 30.3296 36.7959 31.618ZM24.7842 8.51685C24.7041 9.49064 24.5306 10.4794 24.2637 11.4831C24.9443 12.8015 25.8385 13.8951 26.9463 14.764C28.054 15.633 29.2886 16.1873 30.6499 16.427C30.5164 15.5131 30.2829 14.6517 29.9492 13.8427C29.6156 13.0337 29.1952 12.2772 28.688 11.573C28.1808 10.8689 27.5936 10.2697 26.9263 9.77528C26.259 9.2809 25.5449 8.86142 24.7842 8.51685ZM22.2617 8.67416C20.9004 8.79401 19.6191 9.16854 18.418 9.79775C17.2168 10.427 16.1424 11.2509 15.1948 12.2697C14.2472 13.2884 13.4665 14.4644 12.8525 15.7978C12.2386 17.1311 11.8315 18.5468 11.6313 20.0449C12.7658 19.9401 13.8402 19.6704 14.8545 19.236C15.8688 18.8015 16.7964 18.2172 17.6372 17.4831C18.478 16.7491 19.2254 15.9101 19.8794 14.9663C20.5334 14.0225 21.0739 12.9438 21.501 11.7303C21.6878 11.236 21.8413 10.7341 21.9614 10.2247C22.0815 9.71536 22.1816 9.1985 22.2617 8.67416ZM4.48438 5.52809C5.55208 6.51685 6.73324 7.27341 8.02783 7.79775C9.32243 8.3221 10.6637 8.58427 12.0518 8.58427C13.3464 8.58427 14.5942 8.35955 15.7954 7.91011C16.9966 7.46067 18.1177 6.8015 19.1587 5.93258C18.091 4.94382 16.9098 4.18727 15.6152 3.66292C14.3206 3.13858 12.9793 2.8764 11.5913 2.8764C10.2967 2.8764 9.04883 3.10112 7.84766 3.55056C6.64648 4 5.52539 4.65918 4.48438 5.52809ZM10.8506 22.9438C10.7438 22.9738 10.637 22.9888 10.5303 22.9888C10.4235 22.9888 10.3167 22.9888 10.21 22.9888H9.56934C9.35579 22.9888 9.14225 22.9738 8.92871 22.9438V21.8876C8.22135 23.6554 7.62744 25.3933 7.14697 27.1011C6.6665 28.809 6.27279 30.5318 5.96582 32.2697C5.65885 34.0075 5.44531 35.7678 5.3252 37.5506C5.20508 39.3333 5.13835 41.191 5.125 43.1236H7.6875C7.6875 41.3109 7.74089 39.5581 7.84766 37.8652C7.95443 36.1723 8.1346 34.5019 8.38818 32.8539C8.64176 31.206 8.96875 29.5655 9.36914 27.9326C9.76953 26.2996 10.2633 24.6367 10.8506 22.9438ZM19.6992 31.618H34.1133C33.8464 30.764 33.4727 29.985 32.9922 29.2809C32.5117 28.5768 31.9578 27.97 31.3306 27.4607C30.7033 26.9513 30.0093 26.5618 29.2485 26.2921C28.4878 26.0225 27.707 25.8801 26.9062 25.8652C26.0921 25.8652 25.3114 26 24.564 26.2697C23.8166 26.5393 23.1292 26.9288 22.502 27.4382C21.8747 27.9476 21.3141 28.5543 20.8203 29.2584C20.3265 29.9625 19.9528 30.7491 19.6992 31.618Z" fill="#F5F5F5" fill-opacity="0.8"/>
</svg>
